<?xml version="1.0" encoding="UTF-8"?>
<svg id="Réteg_2" data-name="Réteg 2" xmlns="http://www.w3.org/2000/svg" width="70.03" height="58.46" viewBox="0 0 70.03 58.46">
  <g id="Réteg_1" data-name="Réteg 1">
    <g>
      <path d="m13.05,36.11h8.88v6.21h-13.03l-6.21-6.21v-18.68l6.21-6.21h4.15v24.89Zm1.64-18.68v-6.21h12.63l5.44,6.21v3.12h-10.36v-3.12h-7.71Zm3.84,7.64h14.23v17.25h-9.19v-11.09h-5.04v-6.16Z" fill="#fff" stroke-width="0"/>
      <path d="m69.02,30.55c0,.88-.06,1.8-.19,2.77s-.3,1.88-.53,2.74-.51,1.61-.84,2.24-.71,1.06-1.14,1.28c-.17.09-.42.19-.74.29s-.68.19-1.08.27-.81.14-1.23.19-.83.07-1.22.07c-.25,0-.55-.05-.91-.14s-.7-.24-1.03-.43-.61-.44-.83-.73-.34-.62-.34-1c0-.31,0-.63-.02-.96s-.02-.65-.02-.96c0-1.02.02-2.07.05-3.15s.05-2.2.05-3.34c0-1.06-.03-2.13-.08-3.21s-.15-2.18-.29-3.3c-.36.23-.68.54-.97.91s-.56.78-.82,1.21-.5.87-.74,1.32-.48.88-.75,1.27c-.23.36-.52.66-.84.91s-.59.53-.77.84-.3.62-.33.91-.11.56-.23.79-.35.41-.68.54-.88.19-1.64.18c-.48,0-.86-.09-1.14-.26s-.51-.41-.71-.71-.4-.65-.59-1.04-.43-.81-.73-1.27c-.17-.23-.36-.44-.55-.61s-.36-.37-.5-.59c-.19-.3-.38-.63-.59-1.01s-.4-.76-.59-1.15-.37-.78-.55-1.17-.35-.75-.5-1.08c.03.59.05,1.2.07,1.83s.02,1.28.02,1.97v2.67c0,.58,0,1.16.01,1.73s.03,1.14.06,1.69c.02.33.05.66.12,1.01s.13.7.2,1.05.14.72.2,1.08.09.7.09,1.03-.03.57-.08.73-.14.29-.25.41-.25.24-.41.36-.36.31-.6.56-.45.52-.64.8-.41.54-.64.77-.49.43-.77.59-.62.23-1.01.23c-.5,0-1.01-.07-1.52-.21s-.99-.34-1.43-.6-.79-.57-1.07-.95-.41-.8-.41-1.27c0-.59.07-1.32.22-2.18s.22-1.78.22-2.77c0-.38.02-.69.07-.95s.11-.5.18-.73.14-.45.22-.68.14-.5.19-.81c.08-.47.14-.98.18-1.52s.07-1.11.11-1.7.06-1.18.08-1.79.05-1.21.08-1.8c.02-.28.05-.55.11-.82s.11-.54.16-.82.1-.57.14-.87.06-.62.06-.98c0-.33-.03-.63-.08-.91s-.11-.57-.18-.87-.12-.61-.18-.95-.08-.72-.08-1.16c0-.28.04-.59.13-.93s.19-.69.32-1.05.26-.75.4-1.14.27-.79.4-1.2c.06-.2.1-.41.12-.61s.02-.39.02-.57,0-.33.02-.46.05-.22.12-.28c.03-.06.13-.13.3-.21s.36-.16.55-.25.38-.16.56-.21.3-.09.36-.11c.22,0,.42.07.6.2s.43.23.74.29c.45.09.9.16,1.35.19s.86.07,1.24.12.73.12,1.05.21.58.26.79.49c.22.23.42.54.61.9s.37.75.55,1.16.36.82.54,1.24.36.8.55,1.15c.17.31.38.6.61.86s.41.52.54.79c.09.17.15.37.16.6s.08.43.19.6c.05.11.2.38.45.82s.53.9.83,1.39.59.93.84,1.32.43.59.5.59c.19,0,.36-.13.53-.4s.32-.59.48-.98.32-.81.49-1.25.36-.85.56-1.21c.25-.41.53-.79.84-1.16s.58-.78.8-1.23c.14-.3.29-.68.43-1.15s.31-.96.48-1.49.36-1.05.57-1.58.45-1.01.71-1.44.56-.78.89-1.04.7-.4,1.12-.4c.2,0,.38.03.52.08s.29.13.43.22.32.2.5.3.42.21.7.3c.27.08.54.14.81.19s.54.09.79.14.48.11.69.18.39.18.55.34c.16.17.28.39.38.66s.17.55.22.87.09.65.12,1.01.04.72.06,1.08c0,.53-.02,1.04-.05,1.54s-.05.96-.05,1.39c0,.36.03.67.08.94s.12.54.19.81.14.58.2.93.09.77.09,1.27-.02.99-.05,1.51-.05,1.03-.05,1.51c0,.59.04,1.07.13,1.42s.19.64.32.88.26.45.4.66.27.45.38.75c.05.12.09.3.14.54s.09.48.14.74.09.51.12.76.05.46.07.63Z" fill="#fff" stroke-width="0"/>
    </g>
  </g>
</svg>