<?xml version="1.0" encoding="UTF-8"?>
<svg id="Réteg_2" data-name="Réteg 2" xmlns="http://www.w3.org/2000/svg" width="283.2" height="58.46" viewBox="0 0 283.2 58.46">
  <g id="Réteg_1" data-name="Réteg 1">
    <g>
      <path d="m13.05,36.11h8.88v6.21h-13.03l-6.21-6.21v-18.68l6.21-6.21h4.15v24.89Zm1.64-18.68v-6.21h12.63l5.44,6.21v3.12h-10.36v-3.12h-7.71Zm3.84,7.64h14.23v17.25h-9.19v-11.09h-5.04v-6.16Z" fill="#fff" stroke-width="0"/>
      <path d="m47.62,42.32h-4.15l-6.21-6.21v-12.47l6.21-6.21h4.15v24.89Zm1.64-9.98v-4.34h5.46v-4.36h-5.46v-6.21h8.79l6.21,6.21v8.7h-15Zm0,9.98v-5.81h13.92v2.7l-3.09,3.12h-10.83Z" fill="#fff" stroke-width="0"/>
      <path d="m68.67,50.61V17.43h10.36v33.19h-10.36Zm16.57-26.98h-4.57v-3.14l3.05-3.07h5.67l6.23,6.21v12.47l-6.23,6.21h-8.72v-5.81h4.57v-12.87Z" fill="#fff" stroke-width="0"/>
      <path d="m101.3,35.07h10.36v7.24h-10.36v-7.24Z" fill="#fff" stroke-width="0"/>
      <path d="m149.09,30.55c0,.88-.06,1.8-.19,2.77s-.3,1.88-.53,2.74-.51,1.61-.84,2.24-.71,1.06-1.14,1.28c-.17.09-.42.19-.74.29s-.68.19-1.08.27-.81.14-1.23.19-.83.07-1.22.07c-.25,0-.55-.05-.91-.14s-.7-.24-1.03-.43-.61-.44-.83-.73-.34-.62-.34-1c0-.31,0-.63-.02-.96s-.02-.65-.02-.96c0-1.02.02-2.07.05-3.15s.05-2.2.05-3.34c0-1.06-.03-2.13-.08-3.21s-.15-2.18-.29-3.3c-.36.23-.68.54-.97.91s-.56.78-.82,1.21-.5.87-.74,1.32-.48.88-.75,1.27c-.23.36-.52.66-.84.91s-.59.53-.77.84-.3.62-.33.91-.11.56-.23.79-.35.41-.68.54-.88.19-1.64.18c-.48,0-.86-.09-1.14-.26s-.51-.41-.71-.71-.4-.65-.59-1.04-.43-.81-.73-1.27c-.17-.23-.36-.44-.55-.61s-.36-.37-.5-.59c-.19-.3-.38-.63-.59-1.01s-.4-.76-.59-1.15-.37-.78-.55-1.17-.35-.75-.5-1.08c.03.59.05,1.2.07,1.83s.02,1.28.02,1.97v2.67c0,.58,0,1.16.01,1.73s.03,1.14.06,1.69c.02.33.05.66.12,1.01s.13.7.2,1.05.14.72.2,1.08.09.7.09,1.03-.03.57-.08.73-.14.29-.25.41-.25.24-.41.36-.36.31-.6.56-.45.52-.64.8-.41.54-.64.77-.49.43-.77.59-.62.23-1.01.23c-.5,0-1.01-.07-1.52-.21s-.99-.34-1.43-.6-.79-.57-1.07-.95-.41-.8-.41-1.27c0-.59.07-1.32.22-2.18s.22-1.78.22-2.77c0-.38.02-.69.07-.95s.11-.5.18-.73.14-.45.22-.68.14-.5.19-.81c.08-.47.14-.98.18-1.52s.07-1.11.11-1.7.06-1.18.08-1.79.05-1.21.08-1.8c.02-.28.05-.55.11-.82s.11-.54.16-.82.1-.57.14-.87.06-.62.06-.98c0-.33-.03-.63-.08-.91s-.11-.57-.18-.87-.12-.61-.18-.95-.08-.72-.08-1.16c0-.28.04-.59.13-.93s.19-.69.32-1.05.26-.75.4-1.14.27-.79.4-1.2c.06-.2.1-.41.12-.61s.02-.39.02-.57,0-.33.02-.46.05-.22.12-.28c.03-.06.13-.13.3-.21s.36-.16.55-.25.38-.16.56-.21.3-.09.36-.11c.22,0,.42.07.6.2s.43.23.74.29c.45.09.9.16,1.35.19s.86.07,1.24.12.73.12,1.05.21.58.26.79.49c.22.23.42.54.61.9s.37.75.55,1.16.36.82.54,1.24.36.8.55,1.15c.17.31.38.6.61.86s.41.52.54.79c.09.17.15.37.16.6s.08.43.19.6c.05.11.2.38.45.82s.53.9.83,1.39.59.93.84,1.32.43.59.5.59c.19,0,.36-.13.53-.4s.32-.59.48-.98.32-.81.49-1.25.36-.85.56-1.21c.25-.41.53-.79.84-1.16s.58-.78.8-1.23c.14-.3.29-.68.43-1.15s.31-.96.48-1.49.36-1.05.57-1.58.45-1.01.71-1.44.56-.78.89-1.04.7-.4,1.12-.4c.2,0,.38.03.52.08s.29.13.43.22.32.2.5.3.42.21.7.3c.27.08.54.14.81.19s.54.09.79.14.48.11.69.18.39.18.55.34c.16.17.28.39.38.66s.17.55.22.87.09.65.12,1.01.04.72.06,1.08c0,.53-.02,1.04-.05,1.54s-.05.96-.05,1.39c0,.36.03.67.08.94s.12.54.19.81.14.58.2.93.09.77.09,1.27-.02.99-.05,1.51-.05,1.03-.05,1.51c0,.59.04,1.07.13,1.42s.19.64.32.88.26.45.4.66.27.45.38.75c.05.12.09.3.14.54s.09.48.14.74.09.51.12.76.05.46.07.63Z" fill="#fff" stroke-width="0"/>
      <path d="m171.26,28.07c0,.09,0,.18.02.26s.02.16.02.26c0,.36-.04.73-.13,1.1s-.19.75-.32,1.12-.25.75-.38,1.14-.22.77-.28,1.16c-.03.16-.05.33-.05.53v.6c0,.2,0,.4-.02.59s-.04.35-.07.49c-.08.39-.23.81-.47,1.27s-.46.88-.68,1.29c-.33.61-.62,1.12-.88,1.54s-.56.75-.91,1.01-.79.44-1.32.55-1.23.16-2.11.16c-.75,0-1.51-.04-2.27-.12s-1.51-.19-2.23-.33-1.39-.3-2.02-.48-1.16-.37-1.62-.57c-.53-.23-.95-.48-1.27-.75s-.58-.59-.81-.96-.43-.84-.62-1.39-.42-1.25-.7-2.07c-.14-.42-.29-.84-.43-1.24s-.28-.82-.39-1.23-.2-.83-.26-1.24-.09-.84-.07-1.28c0-.25.02-.54.06-.88s.09-.67.15-1.01.13-.66.21-.96.16-.55.26-.74c.08-.19.17-.34.27-.47s.2-.25.29-.38.17-.25.23-.38.09-.28.09-.47c0-.14-.02-.26-.05-.36s-.07-.2-.12-.29-.09-.19-.12-.29-.05-.21-.05-.34c0,.02.04-.07.11-.26s.17-.42.29-.69.28-.57.46-.89.38-.62.59-.89.45-.5.7-.69.52-.28.79-.28h.73c.22,0,.48.02.8.07s.65.09,1.02.14.76.09,1.17.14.82.07,1.23.07c.72,0,1.45-.02,2.18-.07s1.43-.07,2.09-.07c.94,0,1.65.12,2.14.35s.86.53,1.1.88.41.73.52,1.15.24.81.41,1.18c.12.28.34.58.66.9s.59.71.84,1.16c.12.22.2.48.23.8s.11.59.23.82c.12.34.27.61.43.79s.26.37.29.57Zm-5.6,1.2c.03-.31.06-.73.09-1.25s.05-1.04.05-1.54c0-.25-.03-.55-.09-.9s-.2-.69-.4-1.01-.5-.59-.88-.82-.89-.34-1.51-.34c-.39,0-.79.04-1.21.12s-.82.12-1.21.12c-.19,0-.38,0-.59-.02s-.41-.02-.61-.02c-.55,0-.99.11-1.34.34s-.61.53-.8.91-.32.83-.39,1.35-.11,1.06-.11,1.64c0,.75.03,1.38.08,1.88s.14.91.27,1.24.28.59.47.79.42.36.7.5c.25.09.45.14.61.14s.35.05.59.14c.14.05.25.11.33.2s.15.17.22.26.15.16.23.22.19.09.32.09c.11,0,.23,0,.36-.02s.27-.02.41-.02c.19,0,.35.03.49.09s.26.14.36.22.2.16.28.22.18.09.27.09c.05-.02.21-.09.48-.23s.57-.3.88-.48.6-.35.86-.5.39-.25.41-.28c.08-.12.14-.32.18-.6s.07-.57.09-.88.04-.62.05-.91.02-.54.04-.73Z" fill="#fff" stroke-width="0"/>
      <path d="m194.93,32.24c0,.53-.05,1.05-.14,1.57s-.14,1.02-.14,1.5c0,.31.02.62.07.93s.07.61.07.9c0,.06-.03.2-.09.4s-.16.43-.29.68-.3.5-.52.74-.46.42-.74.53c-.19.08-.4.12-.64.14s-.5.03-.77.04-.55.02-.84.02-.57.04-.86.08c-.39.08-.73.16-1.02.26s-.59.14-.9.14c-.56,0-.99-.15-1.28-.46s-.5-.68-.63-1.14-.21-.93-.25-1.43-.06-.95-.09-1.36c-.05-.53-.11-1-.19-1.39s-.13-.78-.16-1.14c0-.22.01-.42.04-.61s.04-.37.04-.54c0-.41-.02-.79-.07-1.14s-.15-.65-.3-.9-.39-.45-.71-.59-.75-.21-1.28-.21c-.38,0-.78.05-1.22.15s-.84.26-1.22.48-.69.49-.94.82-.38.71-.38,1.15c0,.17.04.36.11.56s.11.43.11.68c0,.44-.05.89-.15,1.35s-.15.9-.15,1.32c0,.66.05,1.27.15,1.83s.15,1.05.15,1.45c0,.55-.03,1.02-.08,1.43s-.16.74-.32,1.01-.38.47-.67.61-.66.21-1.11.21c-.72,0-1.27-.17-1.66-.52s-.59-.88-.59-1.59c0-.27,0-.54.02-.83s.02-.59.02-.9c0-.42-.05-.77-.14-1.05s-.21-.55-.34-.82-.27-.55-.42-.86-.28-.69-.39-1.16c-.03-.05-.05-.1-.05-.16v-.21c0-.17,0-.37.02-.6s.02-.46.02-.69c0-.62-.04-1.3-.12-2.02s-.17-1.45-.27-2.2-.19-1.49-.27-2.21-.12-1.42-.12-2.07c0-.58.12-1.05.38-1.43s.57-.67.96-.89.82-.37,1.29-.45.92-.12,1.36-.12c.84,0,1.52.22,2.03.67s.76,1,.76,1.65c0,.22-.02.45-.05.69s-.05.49-.05.74c0,.17.03.37.08.59s.17.33.34.33.46-.06.88-.18.85-.25,1.31-.41.89-.3,1.28-.42.65-.2.77-.23c.59-.11,1.11-.16,1.55-.14s.84-.04,1.22-.16c.36-.09.65-.19.88-.28s.44-.18.63-.26.4-.14.61-.19.48-.07.81-.07c.53,0,.92.06,1.16.18s.43.27.55.45.23.38.3.6.21.43.4.63c.23.27.48.48.74.66s.49.34.7.49.38.33.52.52.2.42.2.7c0,.22-.03.45-.09.68s-.09.52-.09.84c0,.41.05.84.14,1.29s.14.91.14,1.36Z" fill="#fff" stroke-width="0"/>
      <path d="m217.69,38.29c-.06.14-.16.27-.28.4s-.26.25-.41.38-.3.25-.47.39-.32.29-.48.48c-.27.31-.48.66-.64,1.03s-.35.67-.55.89c0,.02-.07.08-.22.2s-.31.24-.49.36-.34.24-.48.35-.2.16-.16.14c-.14.08-.29.12-.46.13s-.35.01-.55.01c-.38,0-.78-.02-1.22-.07s-.88-.07-1.31-.07-.88.07-1.31.21-.88.21-1.34.21c-.39,0-.77,0-1.15.02s-.76.02-1.15.02c-.91,0-1.75-.05-2.52-.16s-1.48-.32-2.12-.64-1.21-.76-1.72-1.32-.93-1.29-1.28-2.18c-.08-.19-.13-.39-.15-.62s-.04-.46-.05-.71-.02-.5-.02-.76-.03-.5-.06-.74c-.12-.62-.25-1.16-.36-1.62s-.18-.88-.18-1.27c0-.42.11-.8.33-1.15s.52-.64.9-.88.83-.43,1.34-.56,1.05-.2,1.63-.2c.31,0,.57,0,.79.02s.42.06.63.13.44.19.68.35.55.39.93.69c.14.16.32.3.55.43s.38.25.46.34c.11.14.19.3.25.49s.11.38.18.59.14.39.23.56.23.31.4.42c.16.17.33.3.52.38s.36.16.53.25.3.2.41.34.16.35.16.63c0,.14,0,.27-.02.4s-.02.25-.02.38c0,.25.06.47.19.66s.29.35.49.48.42.23.66.29.46.09.68.09c.28,0,.57-.05.86-.14s.56-.24.81-.43.45-.44.61-.73.23-.62.23-1c0-.3-.06-.63-.18-1.01s-.18-.79-.18-1.24c0-.22,0-.45.02-.69s.02-.46.02-.67c0-.36-.15-.67-.46-.93s-.71-.49-1.21-.69-1.07-.38-1.7-.54-1.27-.31-1.92-.47-1.28-.32-1.89-.49-1.14-.38-1.59-.61c-.25-.12-.5-.31-.74-.55s-.5-.46-.76-.67c-.33-.25-.64-.48-.94-.69s-.56-.46-.79-.76-.4-.66-.53-1.08-.19-.97-.19-1.64c0-1.22.16-2.18.49-2.89s.8-1.26,1.41-1.65,1.35-.66,2.23-.82,1.85-.29,2.93-.4c.48-.05,1-.1,1.56-.15s1.11-.08,1.65-.08c.39,0,.86.08,1.41.23s1.1.39,1.65.7,1.08.71,1.58,1.18.89,1.04,1.17,1.68c.08.19.16.35.23.48s.14.26.2.38.1.23.13.35.05.26.05.43c-.06.38-.16.68-.29.9s-.31.39-.53.5-.48.18-.79.21-.66.05-1.07.05h-.46c-.13,0-.22-.02-.27-.05-.33-.06-.69-.22-1.08-.47s-.79-.52-1.2-.8-.8-.54-1.18-.79-.71-.39-1-.43c-.45-.09-.86-.14-1.22-.14-.72,0-1.29.14-1.71.43s-.63.64-.63,1.04c0,.25.13.52.39.82s.55.57.88.83.65.48.96.67.52.3.61.33c.12.05.3.06.53.05s.43.02.62.09c.14.05.27.12.38.22s.24.17.4.2c.39.12.8.21,1.24.25s.85.12,1.24.25c1.19.36,2.14.74,2.86,1.15s1.29.93,1.71,1.56.74,1.42.95,2.36.4,2.11.57,3.52c.05.41.12.75.21,1.02s.14.54.14.81c0,.25-.06.52-.19.82Z" fill="#fff" stroke-width="0"/>
      <path d="m237.07,19.75c.67.39,1.01.97,1.01,1.73,0,.28-.05.57-.16.88s-.26.59-.46.86-.43.48-.71.66-.59.26-.91.26c-.16,0-.31,0-.47-.02s-.3-.02-.45-.02c-.23,0-.47.02-.7.07s-.46.09-.67.14-.4.09-.57.14-.31.07-.42.07c-.23,0-.49-.02-.76-.07s-.54-.07-.81-.07c-.44,0-.77.05-1,.14s-.39.24-.48.45-.14.46-.15.79-.01.7-.01,1.14c0,.73-.03,1.51-.09,2.32s-.13,1.63-.21,2.45-.15,1.62-.21,2.41-.09,1.51-.09,2.17c0,.41.02.79.05,1.15s.05.71.05,1.05c0,.09,0,.2-.02.32s-.02.22-.02.32c-.03.11-.11.35-.25.73s-.29.78-.48,1.22-.38.84-.57,1.21-.36.6-.48.69c-.12.08-.28.13-.46.15s-.38.04-.6.04c-1.06,0-1.84-.17-2.33-.5s-.74-.86-.74-1.56c0-.3.02-.6.05-.91s.05-.6.05-.87c0-.88-.05-1.85-.15-2.93s-.22-2.22-.35-3.43-.25-2.47-.35-3.79-.15-2.65-.15-4.01c-.45.09-.87.14-1.24.14-.45,0-.88-.06-1.27-.18s-.73-.29-1.02-.52-.52-.5-.69-.83-.26-.7-.26-1.12c0-.53.12-.95.35-1.25s.54-.54.93-.7.82-.29,1.32-.39,1.02-.2,1.55-.33v-.87c0-.7-.05-1.36-.14-1.97s-.2-1.19-.32-1.75-.22-1.09-.32-1.59-.14-1.01-.14-1.51.04-.89.11-1.22.19-.61.36-.83.4-.42.69-.59.65-.32,1.09-.48c.19-.08.43-.16.73-.23s.62-.15.97-.22.72-.12,1.1-.16.76-.06,1.14-.06c.44,0,.87.04,1.29.11s.8.23,1.14.49.61.64.81,1.16.3,1.23.3,2.13c0,.48-.01.98-.04,1.48s-.07.91-.15,1.22c-.05.2-.12.4-.23.59s-.21.37-.32.54-.19.34-.27.5-.11.32-.09.48c0,.17.02.39.07.64s.07.47.07.64c0,.25-.05.47-.14.66s-.14.37-.14.54c0,.22.12.36.36.41s.59.08,1.04.08c.64,0,1.2-.03,1.69-.08s.93-.12,1.35-.19.81-.13,1.18-.19.77-.08,1.2-.08c.19,0,.38.01.56.04s.35.07.49.15Z" fill="#fff" stroke-width="0"/>
      <path d="m259.66,36.69c.03.31.07.6.11.87s.06.51.06.73c0,.25-.02.44-.05.56s-.08.23-.15.33-.16.2-.28.3-.26.27-.43.49c-.19.3-.37.61-.55.94s-.39.62-.63.89-.52.49-.84.67-.71.27-1.16.27c-.28,0-.58-.02-.9-.06s-.64-.08-.96-.13-.63-.09-.94-.13-.58-.06-.83-.06c-1.08,0-2.17-.02-3.27-.06s-2.14-.18-3.13-.41c-.33-.09-.67-.18-1.03-.25s-.72-.15-1.08-.25-.7-.21-1.03-.34-.61-.29-.84-.48c-.67-.67-1.21-1.41-1.61-2.2s-.71-1.7-.94-2.7-.39-2.11-.48-3.33-.17-2.59-.23-4.1c-.03-.53-.09-1.04-.16-1.52s-.12-.86-.12-1.12c0-.12.06-.32.18-.59s.2-.52.25-.75c.08-.34.11-.68.11-1.02s0-.54.04-.62c.05-.11.14-.24.29-.39s.31-.31.49-.48.36-.35.54-.53.33-.36.46-.53c.11-.16.38-.35.81-.57s.96-.47,1.61-.74,1.36-.53,2.16-.79,1.61-.49,2.45-.7,1.67-.38,2.51-.52,1.61-.21,2.33-.22c.3,0,.63.05,1,.16s.73.25,1.1.43.72.39,1.07.62.63.47.87.7c.12.12.24.33.35.62s.23.53.38.71c.34.44.58.77.71.98s.22.41.26.59.05.36.04.56,0,.52.05.94c.03.33.05.6.07.82s.02.42.02.61v1.12c0,.45-.12.82-.35,1.1s-.55.54-.96.77-.89.46-1.46.68-1.18.48-1.84.8c-.55.27-1.13.45-1.76.56s-1.2.16-1.73.16h-.19s-.11-.02-.19-.05c-.11-.02-.3.02-.56.09s-.57.17-.91.27-.71.2-1.11.28-.79.13-1.16.13c-.25,0-.49.04-.71.11s-.43.16-.6.27-.31.22-.41.33-.15.21-.15.3c0,.55.1.98.29,1.31s.41.58.64.75c.28.2.59.34.94.42.39.17.77.29,1.12.34s.72.08,1.08.08c.59,0,1.21-.05,1.86-.14s1.39-.14,2.21-.14c.39,0,.72.05,1,.14s.57.14.88.14c.33,0,.66-.03.98-.09s.64-.13.94-.21.58-.15.86-.21.53-.09.76-.09c.61,0,1.05.21,1.32.62s.47,1.05.6,1.91Zm-9.07-10.78c.03-.08.05-.16.07-.26s.02-.19.02-.28c0-.47-.04-.89-.13-1.25s-.19-.68-.3-.94-.25-.45-.39-.59-.27-.2-.38-.2c-.3,0-.74.06-1.34.18s-1.2.26-1.8.43-1.16.36-1.65.56-.79.39-.9.56c-.08.12-.13.31-.16.55s-.05.52-.05.83c0,.66.04,1.16.13,1.52s.24.54.46.54c.14,0,.3-.02.47-.07s.34-.1.5-.15.31-.11.45-.15.24-.08.32-.09c.34-.06.77-.11,1.27-.14s.99-.08,1.46-.15.9-.17,1.27-.3.6-.33.69-.6Z" fill="#fff" stroke-width="0"/>
      <path d="m283.15,26.87c-.02.16-.06.29-.13.39s-.15.22-.23.35-.16.29-.22.48-.09.44-.09.75c0,.12,0,.23.02.33s.02.2.02.33c0,.47-.11.83-.32,1.09s-.49.46-.84.62-.76.28-1.23.36-.95.2-1.45.34c-.36.09-.74.2-1.15.33s-.8.19-1.2.19c-.66,0-1.12-.19-1.39-.56s-.45-.85-.53-1.42-.1-1.18-.07-1.84.03-1.27-.01-1.84-.16-1.04-.35-1.42-.56-.56-1.09-.56c-.22,0-.45.04-.68.12s-.46.17-.67.27-.41.2-.59.3-.32.18-.43.22c-.23.11-.5.22-.81.34s-.6.24-.88.38-.52.28-.71.45-.29.36-.29.57c0,.36.08.82.25,1.37s.34,1.11.53,1.66.36,1.05.53,1.48.25.7.25.81-.02.21-.07.32-.07.22-.07.36c0,.22.03.45.08.7s.12.51.19.79.14.55.2.84.09.58.09.88c0,.09,0,.29-.02.6s-.04.63-.07.98-.07.69-.13,1.01-.12.55-.2.69c-.08.12-.17.22-.28.28s-.23.11-.35.15-.26.08-.4.12-.29.11-.45.2c-.34.22-.59.42-.75.6s-.31.34-.46.47-.34.24-.56.32-.58.12-1.07.12c-.67,0-1.23-.08-1.69-.25s-.82-.42-1.1-.77-.48-.8-.6-1.35-.18-1.2-.18-1.95c0-.52.04-1.03.13-1.54s.19-1.02.3-1.54.23-1.04.35-1.56.21-1.07.27-1.63c.08-.75.14-1.56.2-2.43s.08-1.68.08-2.43c0-.62-.05-1.33-.14-2.11-.03-.19-.09-.38-.16-.56s-.12-.37-.12-.54c0-.23.03-.48.08-.75s.12-.53.19-.8.14-.54.2-.81.1-.54.12-.81c0-.27-.04-.48-.11-.64s-.11-.33-.11-.5c0-.44.09-.78.26-1.02s.35-.41.54-.52.35-.16.49-.18.18-.02.12-.02c.59,0,1.06.12,1.39.36s.59.54.75.9.27.75.32,1.16.09.8.12,1.16.07.66.13.9.18.36.36.36c.12,0,.29-.05.48-.16s.38-.23.55-.35.3-.23.4-.32.11-.1.05-.04l-.05.05s.03,0,.05-.02c.05-.05.1-.09.16-.12l-.09.05h-.02l.61-.47c.17-.12.36-.26.56-.41s.39-.27.56-.36c.27-.17.56-.29.89-.36s.62-.19.89-.36c.23-.17.47-.36.7-.56s.45-.37.63-.49c.19-.08.42-.16.69-.23s.57-.14.88-.2.62-.1.91-.14.56-.06.8-.06c.22,0,.41.04.56.11s.3.16.45.27.29.22.46.33.36.2.6.26c.3.09.64.16,1.03.2s.75.13,1.09.27.62.37.86.69.34.82.33,1.49c0,.3.03.56.09.8s.13.45.2.63.14.37.2.54.09.35.09.54c0,.17-.01.36-.04.55s-.04.39-.04.6c0,.31.06.64.18,1s.18.63.18.83Z" fill="#fff" stroke-width="0"/>
    </g>
  </g>
</svg>